<svg viewBox="0 0 242 80" fill="none" xmlns="http://www.w3.org/2000/svg">
<path d="M74.3725 17.5178C75.5548 17.5178 77.1313 17.648 78.7728 17.648C80.906 17.6154 81.9256 17.5829 82.7138 17.5504C82.844 17.6154 82.8765 18.3711 82.7138 18.4687C81.9582 18.6314 81.499 18.7327 81.0723 18.8628C80.5481 19.0256 80.4468 19.4522 80.5806 20.1428C81.2386 22.9666 83.0429 29.4025 84.1601 33.2749C84.1601 33.2749 84.2252 33.2749 84.2903 33.2423C85.7004 29.3699 88.394 21.7518 89.2799 18.5664C89.7391 18.6314 90.6249 18.6314 91.019 18.5664C91.8072 21.5204 95.0902 30.7475 96.1388 33.5026C96.1713 33.5352 96.2689 33.5026 96.3015 33.4701C97.1873 30.7439 99.3531 23.6536 99.946 20.9635C100.21 19.8463 100.243 19.0906 99.2555 18.8303C98.7312 18.7001 98.2395 18.5989 97.3175 18.4687C97.1548 18.3386 97.1873 17.6154 97.3175 17.5504C98.1057 17.5504 99.7797 17.648 101.125 17.648C103.291 17.648 104.213 17.5504 104.899 17.5504C105.03 17.648 105.03 18.3711 104.899 18.4687C104.241 18.5989 103.815 18.7001 103.453 18.8303C102.665 19.1268 102.238 19.5534 101.747 20.8659C100.337 24.7057 97.4115 34.0305 96.2328 38.0367C95.9363 38.0367 94.8552 38.0367 94.5587 38.0692C93.803 35.343 90.6177 26.1846 89.4028 22.9666C89.3703 22.9666 89.3052 22.9992 89.2726 23.0317C87.7938 27.1355 85.1038 34.685 84.0516 38.0331C83.7551 38.0005 82.7066 38.0005 82.3776 38.0656C81.3941 34.0269 78.733 24.1779 77.6845 20.9599C77.1927 19.5137 76.8637 19.0545 76.0104 18.8267C75.4536 18.664 75.092 18.5953 74.2713 18.4651C74.1737 18.3386 74.2062 17.6154 74.3725 17.5178Z" fill="white"/>
<path d="M107.203 17.5504C107.991 17.5504 109.632 17.648 111.404 17.648C113.602 17.648 114.589 17.5504 115.508 17.5504C115.605 17.7131 115.605 18.3712 115.475 18.4688C114.886 18.5664 114.26 18.6676 113.899 18.7653C113.241 18.9605 113.013 19.2245 112.98 20.2766C112.915 21.4915 112.948 23.1655 112.948 26.3835C112.948 26.5136 113.013 26.6799 113.111 26.7125C113.342 26.745 113.931 26.7776 118.693 26.7776C122.305 26.745 123.553 26.745 123.849 26.7125C123.947 26.7125 124.044 26.5823 124.044 26.5172C124.044 24.8106 124.044 21.101 123.979 19.9187C123.947 19.3944 123.784 19.0003 123.321 18.834C122.83 18.6713 122.237 18.57 121.383 18.4724C121.221 18.3422 121.253 17.6842 121.416 17.5215C122.171 17.5215 123.78 17.6516 125.52 17.6516C127.161 17.6516 129.067 17.554 129.591 17.554C129.688 17.6842 129.721 18.3422 129.591 18.4724C128.868 18.57 128.311 18.6713 127.884 18.8014C127.161 19.0328 127.031 19.3908 126.966 20.5731C126.901 21.7229 126.901 23.6609 126.901 27.5658C126.901 30.4221 126.901 34.0342 126.966 35.1478C127.063 36.0662 127.262 36.4277 127.884 36.6266C128.343 36.7893 128.969 36.8906 129.985 36.9882C130.083 37.1183 130.05 37.8415 129.855 37.9391C128.871 37.9391 127.129 37.8415 125.454 37.8415C123.78 37.8415 122.139 37.9066 121.286 37.9391C121.155 37.8089 121.155 37.1509 121.286 36.9882C122.139 36.8906 122.631 36.8255 123.155 36.6591C123.744 36.4964 123.943 36.1674 124.008 35.1478C124.041 34.1969 124.041 30.6174 124.041 28.5492C124.041 28.4516 123.943 28.3178 123.846 28.3178C123.22 28.2853 120.432 28.2853 118.625 28.2853C116.065 28.2853 113.371 28.2853 113.042 28.3178C112.977 28.3178 112.944 28.4805 112.944 28.5167C112.944 30.3209 112.944 34.0993 112.977 34.7862C113.042 35.9035 113.172 36.3627 113.993 36.5905C114.485 36.7206 114.976 36.8544 115.963 36.9846C116.094 37.1473 115.963 37.8704 115.833 37.9355C115.208 37.9355 113.667 37.8379 111.567 37.8379C109.629 37.8379 107.857 37.9355 107.199 37.9355C107.069 37.8053 107.069 37.1147 107.167 36.9846C107.955 36.8869 108.479 36.7857 108.938 36.6881C109.889 36.3916 109.99 35.8022 110.088 34.2909C110.088 33.1737 110.12 30.3824 110.12 27.5296C110.12 24.3442 110.088 20.866 110.055 20.273C109.99 19.3546 109.791 18.9931 109.137 18.8267C108.645 18.664 108.052 18.5953 107.167 18.4652C107.04 18.3386 107.072 17.6806 107.203 17.5504Z" fill="white"/>
<path d="M134.002 17.5178C134.823 17.5178 136.529 17.648 138.37 17.648H144.838C146.085 17.648 147.792 17.6154 148.483 17.5178C148.515 17.5504 148.613 17.648 148.613 17.6805C148.349 18.664 148.121 20.8659 148.023 22.1784C147.893 22.3411 147.105 22.3411 147.004 22.2435C146.906 21.2926 146.772 20.7321 146.642 20.2404C146.378 19.4522 146.085 19.0906 145.001 18.993C144.379 18.9605 140.405 18.9605 139.979 18.993C139.747 19.0581 139.584 19.4522 139.584 19.6185C139.552 21.4589 139.552 25.0999 139.552 26.5787C139.552 26.6763 139.617 26.8101 139.715 26.8101C141.027 26.8426 143.554 26.8426 144.737 26.745C145.46 26.6799 145.688 26.2858 145.854 25.7615C145.984 25.4 146.118 24.9408 146.216 24.449C146.414 24.3514 147.167 24.384 147.3 24.5467C147.203 25.2047 147.069 26.4846 147.069 27.6308C147.069 28.8457 147.101 29.7966 147.134 30.6173C146.971 30.78 146.183 30.8126 146.017 30.6499C145.919 29.9593 145.887 29.699 145.753 29.3049C145.623 28.8457 145.391 28.419 144.636 28.3539C143.652 28.2563 140.926 28.2563 139.711 28.2889C139.646 28.2889 139.548 28.4516 139.548 28.5528C139.548 30.0641 139.548 33.5424 139.613 35.1188C139.613 35.7769 139.975 36.2361 140.369 36.3662C141.027 36.5289 143.884 36.5615 145.229 36.5615C146.639 36.5289 147.065 36.2325 147.658 35.4768C148.183 34.8874 148.873 33.5713 149.3 32.5879C149.462 32.5553 150.121 32.7867 150.251 32.9494C150.088 33.9654 149.365 36.4639 148.873 37.4473C148.678 37.8089 148.479 37.9716 146.837 37.9716C144.079 37.9716 141.718 37.8414 138.301 37.8414C136.103 37.8414 134.461 37.939 133.112 37.939C132.982 37.8414 132.95 37.1508 133.08 36.9881C134.1 36.8905 134.985 36.8254 135.575 36.6591C136.363 36.4639 136.591 36.0336 136.692 34.8874C136.725 34.2619 136.725 30.6535 136.725 26.9438C136.725 23.9573 136.725 21.0359 136.692 20.4429C136.627 19.2606 136.493 18.9641 135.709 18.7688C135.282 18.6387 134.725 18.5374 133.969 18.4398C133.807 18.306 133.872 17.6805 134.002 17.5178Z" fill="white"/>
<path d="M156.303 33.9329C157.977 29.9593 161.065 21.5891 161.785 19.4884C162.049 18.7978 162.276 18.0783 162.341 17.6155C162.472 17.6155 162.866 17.648 163.426 17.648C164.084 17.648 164.41 17.6155 164.511 17.6155C164.641 18.1072 164.807 18.7002 165.035 19.3221C165.693 21.1914 169.334 31.6008 170.484 34.3234C171.435 36.5217 171.666 36.6881 174.031 36.9809C174.161 37.0786 174.063 37.8017 173.966 37.9318C173.112 37.8993 171.438 37.8342 169.96 37.8342C168.351 37.8342 166.348 37.8993 165.661 37.9318C165.563 37.8017 165.498 37.1111 165.628 36.9809C166.351 36.8833 166.941 36.7821 167.432 36.6194C167.859 36.4241 167.891 36.0951 167.794 35.7986C167.4 34.3885 166.416 31.6298 165.823 30.151C165.791 30.0533 165.592 29.9196 165.527 29.9196C165.068 29.887 163.918 29.9196 162.439 29.9196C160.338 29.9196 160.107 29.887 159.713 29.9196C159.583 29.9196 159.416 30.1148 159.384 30.216C158.726 31.9877 157.677 34.7465 157.612 35.5347C157.58 36.0915 157.645 36.453 158.664 36.717C159.058 36.8146 159.615 36.9158 160.241 36.9809C160.338 37.1111 160.273 37.8017 160.176 37.9318C159.485 37.9318 157.811 37.8342 155.974 37.8342C154.101 37.8342 153.085 37.9318 152.46 37.9318C152.33 37.8017 152.33 37.1111 152.46 36.9809C154.824 36.6881 155.219 36.4603 156.303 33.9329ZM162.573 21.0612C162.016 22.7027 160.667 26.4124 160.111 28.1515C160.111 28.2817 160.143 28.3467 160.241 28.3829C160.57 28.4154 161.618 28.4154 162.866 28.4154C163.654 28.4154 164.739 28.4154 165.064 28.3829C165.129 28.3829 165.227 28.2527 165.162 28.119C164.504 26.0833 163.256 22.4388 162.732 21.0287C162.703 21.0287 162.605 20.9961 162.573 21.0612Z" fill="white"/>
<path d="M187.984 37.9354C187.033 37.9354 185.095 37.8378 183.092 37.8378C180.662 37.8378 178.988 37.9354 178.135 37.9354C178.004 37.7727 178.037 37.1147 178.135 36.9845C179.154 36.8869 179.975 36.7857 180.467 36.6555C181.519 36.4603 181.682 35.8022 181.714 34.2909C181.812 31.731 181.844 24.7058 181.844 19.2534C181.844 19.1232 181.714 18.9894 181.613 18.9894C181.056 18.9569 178.626 18.9569 177.379 18.9894C176.822 19.022 176.395 19.2534 176.001 19.9078C175.607 20.5333 175.181 21.712 174.721 22.9594C174.591 23.057 173.77 22.8618 173.702 22.6955C173.966 21.3179 174.291 18.6893 174.36 17.2792C174.36 17.2141 174.656 17.1165 174.721 17.149C175.311 17.4455 176.168 17.6408 177.379 17.6408H189.527C191.039 17.6408 191.758 17.5757 192.713 17.149C192.811 17.149 193.009 17.2467 193.042 17.3117C192.713 18.4615 192.453 21.0865 192.286 22.8618C192.189 23.0245 191.335 23.0245 191.234 22.8943C191.136 21.7445 190.97 20.5948 190.71 19.9729C190.446 19.3148 190.052 19.0545 189.43 19.022C187.886 18.9894 185.59 18.9894 184.834 19.022C184.737 19.0545 184.672 19.1847 184.672 19.2859C184.672 24.1128 184.672 33.2062 184.769 34.8802C184.867 36.03 185.131 36.4241 185.887 36.6193C186.411 36.7821 186.971 36.8507 188.121 36.9809C188.215 37.1472 188.15 37.8704 187.984 37.9354Z" fill="white"/>
<path d="M198.625 35.4406C196.654 33.2749 195.801 30.5161 195.801 27.5621C195.801 25.1324 196.524 23.0317 197.836 21.2275C199.641 18.7327 203.22 17.0587 206.601 17.0587C213.297 17.0587 216.681 21.9506 216.681 27.3018C216.681 30.1907 216.023 32.2589 214.678 34.1318C212.642 36.9556 209.327 38.4308 206.044 38.4308C202.891 38.4308 200.331 37.281 198.625 35.4406ZM210.806 35.8348C212.841 34.1932 213.564 31.467 213.564 28.448C213.564 24.901 212.382 21.4878 209.79 19.6836C208.607 18.8629 207.197 18.3711 205.487 18.3711C204.337 18.3711 203.354 18.6351 202.533 19.0943C200.136 20.5044 199.019 23.462 199.019 26.8101C199.019 30.2558 200.299 34.0016 203.188 35.8709C204.337 36.594 205.617 36.9881 207.291 36.9881C208.672 36.9845 209.952 36.5579 210.806 35.8348Z" fill="white"/>
<path d="M218.916 17.5504C219.736 17.5504 221.378 17.648 223.019 17.648C223.677 17.648 224.234 17.648 224.498 17.6154C224.628 17.9445 224.827 18.306 225.68 19.3871C229.029 23.5885 235.761 31.796 237.334 33.6364C237.399 33.6689 237.431 33.6364 237.464 33.6039C237.464 29.106 237.496 22.9666 237.334 20.602C237.269 19.651 237.07 19.1232 236.086 18.8628C235.497 18.7001 234.774 18.5664 233.888 18.4687C233.758 18.3386 233.79 17.648 233.888 17.5504C234.741 17.5504 236.253 17.648 238.256 17.648C239.373 17.648 241.307 17.5504 241.734 17.5504C241.864 17.648 241.864 18.3386 241.734 18.4687C241.145 18.5664 240.718 18.6676 240.288 18.7978C239.434 19.0942 239.236 19.6836 239.17 20.5694C238.972 23.0968 239.008 27.2982 238.906 33.5062C238.906 35.0176 238.939 36.9194 238.972 38.0041C238.61 37.9716 237.102 37.9716 236.708 38.0041C234.969 35.5093 225.941 24.214 223.97 21.7517C223.938 21.7192 223.84 21.7517 223.84 21.7843C223.775 25.1649 223.775 32.8482 223.873 34.6849C223.938 35.9974 224.364 36.4566 225.218 36.6555C225.709 36.8182 226.367 36.8869 227.188 36.9845C227.318 37.1147 227.221 37.8053 227.123 37.9354C226.335 37.9354 224.856 37.8378 223.019 37.8378C221.016 37.8378 219.769 37.9354 219.078 37.9354C218.981 37.8378 218.981 37.0821 219.078 36.9845C219.801 36.9194 220.326 36.8218 220.817 36.688C221.573 36.4566 222 36.03 222.065 34.75C222.195 33.0434 222.296 27.6923 222.361 20.7972C222.361 20.3055 222.199 19.5824 221.475 19.1882C220.854 18.7616 220.13 18.5989 218.85 18.4651C218.753 18.3711 218.785 17.648 218.916 17.5504Z" fill="white"/>
<path d="M89.9017 47.2349C89.2184 46.9023 88.3289 46.7793 87.3346 46.7793C84.3336 46.7793 82.6162 48.9921 82.6162 52.4884C82.6162 55.8004 84.4566 58.5917 88.1409 58.5917C89.0304 58.5917 89.8981 58.3639 90.4188 57.8866C90.9358 57.4744 91.4312 56.7694 91.9699 55.8582C92.0748 55.8582 92.4255 56.0463 92.4653 56.1909C92.2592 57.0803 91.3697 58.6965 90.8924 58.9858C90.2922 59.1919 88.987 59.5028 87.7251 59.5028C83.1115 59.5028 80.5444 56.9791 80.5444 52.6728C80.5444 50.4384 81.5568 48.2039 83.8347 46.9818C84.9302 46.3816 86.2752 46.0309 88.0361 46.0309C89.7933 46.0309 91.1817 46.3816 92.1109 46.4431C91.988 47.1662 91.8 48.6992 91.7783 49.6285C91.6951 49.7116 91.1564 49.7731 91.1383 49.6719C90.9358 48.0231 90.6683 47.6073 89.9017 47.2349Z" fill="white"/>
<path d="M97.8453 57.6227C96.6052 56.2559 96.0664 54.5204 96.0664 52.6584C96.0664 51.1253 96.522 49.802 97.35 48.6631C98.4889 47.0903 100.745 46.0345 102.875 46.0345C107.094 46.0345 109.227 49.1186 109.227 52.4884C109.227 54.3107 108.815 55.6124 107.966 56.7911C106.682 58.57 104.592 59.5028 102.524 59.5028C100.535 59.5064 98.9192 58.7797 97.8453 57.6227ZM105.521 57.8721C106.805 56.8381 107.261 55.1206 107.261 53.2152C107.261 50.9807 106.516 48.8294 104.881 47.6905C104.137 47.1734 103.247 46.8625 102.17 46.8625C101.447 46.8625 100.825 47.0288 100.308 47.318C98.7962 48.2075 98.0948 50.0696 98.0948 52.1811C98.0948 54.3541 98.9011 56.7115 100.723 57.8938C101.447 58.3494 102.256 58.5989 103.309 58.5989C104.176 58.5953 104.983 58.3277 105.521 57.8721Z" fill="white"/>
<path d="M112.507 46.3455C113.107 46.3455 113.79 46.4069 115.157 46.4069C116.542 46.4069 117.308 46.3455 117.724 46.3455C117.829 46.4286 117.829 46.8408 117.724 46.924C117.207 46.9854 116.94 47.0469 116.668 47.112C116.173 47.2349 116.13 47.5061 116.108 47.94C116.068 48.6848 116.068 50.4637 116.047 52.4089C116.047 54.976 116.047 56.6935 116.108 57.5829C116.13 57.9156 116.376 58.1217 116.502 58.1614C117.041 58.3458 119.048 58.3458 119.959 58.3277C120.393 58.3061 120.765 58.1614 121.181 57.5612C121.553 57.0659 122.049 56.1547 122.403 55.2834C122.569 55.2436 122.942 55.3882 123.025 55.5111C122.88 56.3174 122.302 58.3458 121.947 58.9677C121.864 59.134 121.658 59.2353 121.098 59.2353C119.774 59.2353 116.213 59.1304 115.161 59.1304C114.188 59.1304 112.615 59.1919 112.203 59.1919C112.12 59.1304 112.098 58.6532 112.203 58.5917C112.825 58.5302 113.176 58.4868 113.57 58.4073C114.025 58.2844 114.17 58.0566 114.21 57.5576C114.25 56.9972 114.293 54.9724 114.293 52.2824C114.293 50.0877 114.293 48.8475 114.25 48.3088C114.228 47.4591 114.145 47.2313 113.588 47.1084C113.32 47.0469 112.821 46.9637 112.449 46.9204C112.362 46.8408 112.402 46.4069 112.507 46.3455Z" fill="white"/>
<path d="M126.51 46.3455C127.11 46.3455 127.794 46.4069 129.161 46.4069C130.545 46.4069 131.312 46.3455 131.728 46.3455C131.832 46.4286 131.832 46.8408 131.728 46.924C131.211 46.9854 130.943 47.0469 130.672 47.112C130.177 47.2349 130.133 47.5061 130.111 47.94C130.072 48.6848 130.072 50.4637 130.05 52.4089C130.05 54.976 130.05 56.6935 130.111 57.5829C130.133 57.9156 130.379 58.1217 130.506 58.1614C131.044 58.3458 133.051 58.3458 133.962 58.3277C134.396 58.3061 134.768 58.1614 135.184 57.5612C135.557 57.0659 136.052 56.1547 136.406 55.2834C136.573 55.2436 136.945 55.3882 137.028 55.5111C136.884 56.3174 136.305 58.3458 135.951 58.9677C135.868 59.134 135.661 59.2353 135.101 59.2353C133.778 59.2353 130.216 59.1304 129.164 59.1304C128.192 59.1304 126.619 59.1919 126.207 59.1919C126.123 59.1304 126.102 58.6532 126.207 58.5917C126.828 58.5302 127.179 58.4868 127.573 58.4073C128.029 58.2844 128.173 58.0566 128.213 57.5576C128.253 56.9972 128.296 54.9724 128.296 52.2824C128.296 50.0877 128.296 48.8475 128.253 48.3088C128.231 47.4591 128.148 47.2313 127.591 47.1084C127.324 47.0469 126.825 46.9637 126.452 46.9204C126.366 46.8408 126.409 46.4069 126.51 46.3455Z" fill="white"/>
<path d="M141.042 46.3237C141.559 46.3237 142.636 46.4069 143.793 46.4069H147.868C148.653 46.4069 149.73 46.3852 150.164 46.3237C150.186 46.3454 150.247 46.4069 150.247 46.4286C150.081 47.0505 149.936 48.4353 149.875 49.2633C149.791 49.3681 149.296 49.3681 149.235 49.303C149.173 48.7028 149.09 48.3521 149.007 48.0412C148.841 47.5458 148.656 47.318 147.973 47.2566C147.579 47.2349 145.077 47.2349 144.805 47.2566C144.661 47.3 144.556 47.5458 144.556 47.6507C144.534 48.8113 144.534 51.1072 144.534 52.0365C144.534 52.0979 144.578 52.1811 144.639 52.1811C145.467 52.2028 147.062 52.2028 147.806 52.1413C148.262 52.0979 148.407 51.8521 148.512 51.5194C148.595 51.2916 148.678 51.0024 148.739 50.6914C148.862 50.63 149.339 50.6517 149.423 50.7529C149.361 51.1651 149.278 51.975 149.278 52.6981C149.278 53.4647 149.3 54.0649 149.318 54.5819C149.213 54.6867 148.718 54.7048 148.613 54.6036C148.551 54.1697 148.53 54.0034 148.446 53.7539C148.363 53.4647 148.219 53.1971 147.741 53.1537C147.119 53.0922 145.402 53.0922 144.639 53.1139C144.596 53.1139 144.534 53.2188 144.534 53.2803C144.534 54.2312 144.534 56.4259 144.578 57.4202C144.578 57.8324 144.805 58.1252 145.055 58.2048C145.467 58.3096 147.268 58.3277 148.117 58.3277C149.007 58.306 149.278 58.1216 149.65 57.6443C149.983 57.2719 150.417 56.444 150.685 55.8221C150.789 55.8004 151.202 55.945 151.285 56.0498C151.18 56.6898 150.728 58.2626 150.417 58.8845C150.294 59.1123 150.167 59.2172 149.133 59.2172C147.394 59.2172 145.905 59.134 143.753 59.134C142.369 59.134 141.331 59.1955 140.485 59.1955C140.402 59.134 140.38 58.7001 140.463 58.5953C141.103 58.5338 141.663 58.4904 142.036 58.3892C142.531 58.2662 142.676 57.9951 142.741 57.2719C142.763 56.8778 142.763 54.6036 142.763 52.2643C142.763 50.3805 142.763 48.5401 142.741 48.1677C142.701 47.4229 142.618 47.2349 142.119 47.1119C141.851 47.0288 141.497 46.9673 141.023 46.9059C140.919 46.8227 140.962 46.4286 141.042 46.3237Z" fill="white"/>
<path d="M166.995 58.7182C166.311 58.9243 164.283 59.5028 162.482 59.5028C157.641 59.5028 155.096 57.0622 155.096 52.6945C155.096 49.9647 156.48 47.8315 158.737 46.8191C159.894 46.2804 161.159 46.0345 162.772 46.0345C164.449 46.0345 165.628 46.3671 166.868 46.4901C166.702 47.2566 166.517 48.8475 166.496 49.7803C166.434 49.8852 165.917 49.9249 165.812 49.8418C165.646 48.2907 165.4 47.7121 164.8 47.3578C164.16 46.9854 163.332 46.7793 161.987 46.7793C158.758 46.7793 157.207 49.0752 157.207 52.4704C157.207 56.0282 159.109 58.7797 162.855 58.7797C163.433 58.7797 163.95 58.6965 164.24 58.5121C164.529 58.3675 164.652 57.9951 164.695 57.6444C164.757 57.0044 164.757 56.2379 164.735 55.5328C164.695 54.8495 164.569 54.6 163.968 54.4373C163.596 54.3541 163.224 54.3143 162.584 54.2312C162.479 54.1697 162.522 53.6924 162.605 53.631C163.245 53.631 164.24 53.6924 165.501 53.6924C166.724 53.6924 167.342 53.6527 167.758 53.631C167.819 53.6924 167.819 54.1914 167.736 54.2529C167.486 54.2926 167.241 54.336 167.053 54.3975C166.658 54.5204 166.557 54.7916 166.536 55.3918C166.514 56.0137 166.496 57.2936 166.536 57.6877C166.557 57.9987 166.597 58.0999 167.053 58.2879C167.078 58.3458 167.035 58.6567 166.995 58.7182Z" fill="white"/>
<path d="M171.767 46.3237C172.284 46.3237 173.362 46.4069 174.519 46.4069H178.594C179.378 46.4069 180.456 46.3852 180.89 46.3237C180.911 46.3454 180.973 46.4069 180.973 46.4286C180.807 47.0505 180.662 48.4353 180.6 49.2633C180.517 49.3681 180.022 49.3681 179.96 49.303C179.899 48.7028 179.816 48.3521 179.733 48.0412C179.566 47.5458 179.382 47.318 178.699 47.2566C178.305 47.2349 175.802 47.2349 175.531 47.2566C175.387 47.3 175.282 47.5458 175.282 47.6507C175.26 48.8113 175.26 51.1072 175.26 52.0365C175.26 52.0979 175.304 52.1811 175.365 52.1811C176.193 52.2028 177.787 52.2028 178.532 52.1413C178.988 52.0979 179.132 51.8521 179.237 51.5194C179.321 51.2916 179.404 51.0024 179.465 50.6914C179.588 50.63 180.065 50.6517 180.148 50.7529C180.087 51.1651 180.004 51.975 180.004 52.6981C180.004 53.4647 180.026 54.0649 180.044 54.5819C179.939 54.6867 179.443 54.7048 179.339 54.6036C179.277 54.1697 179.255 54.0034 179.172 53.7539C179.089 53.4647 178.944 53.1971 178.467 53.1537C177.845 53.0922 176.128 53.0922 175.365 53.1139C175.322 53.1139 175.26 53.2188 175.26 53.2803C175.26 54.2312 175.26 56.4259 175.304 57.4202C175.304 57.8324 175.531 58.1252 175.781 58.2048C176.193 58.3096 177.994 58.3277 178.843 58.3277C179.733 58.306 180.004 58.1216 180.376 57.6443C180.709 57.2719 181.143 56.444 181.41 55.8221C181.515 55.8004 181.927 55.945 182.011 56.0498C181.906 56.6898 181.454 58.2626 181.143 58.8845C181.02 59.1123 180.893 59.2172 179.859 59.2172C178.12 59.2172 176.63 59.134 174.479 59.134C173.094 59.134 172.057 59.1955 171.211 59.1955C171.127 59.134 171.106 58.7001 171.189 58.5953C171.829 58.5338 172.389 58.4904 172.762 58.3892C173.257 58.2662 173.402 57.9951 173.467 57.2719C173.488 56.8778 173.488 54.6036 173.488 52.2643C173.488 50.3805 173.488 48.5401 173.467 48.1677C173.423 47.4229 173.344 47.2349 172.845 47.1119C172.577 47.0288 172.223 46.9673 171.749 46.9059C171.644 46.8227 171.684 46.4286 171.767 46.3237Z" fill="white"/>
<path d="M81.3978 72.4469C81.6762 72.3818 81.734 72.2697 81.7991 71.9551C81.8931 71.5285 82.421 68.2238 82.468 67.8405C82.5041 67.544 82.468 67.4211 82.2727 67.3669C82.1534 67.3199 81.9365 67.3018 81.7232 67.2729C81.6942 67.2367 81.734 67.0415 81.7702 67.0125C81.9293 67.0125 82.4318 67.0415 82.9416 67.0415H84.97C85.2665 67.0415 85.657 67.0234 85.8559 66.9944C85.8739 66.9944 85.892 67.0595 85.892 67.0957C85.7799 67.3741 85.6498 67.8947 85.5558 68.3901C85.5268 68.4371 85.3244 68.4371 85.2774 68.4009C85.2774 68.1478 85.2665 67.8984 85.2412 67.7212C85.2123 67.5079 85.0821 67.4139 84.8869 67.403C84.5615 67.3849 83.6214 67.3741 83.4153 67.3849C83.3502 67.3849 83.2743 67.4862 83.2671 67.5513C83.1839 67.9056 82.9706 69.2362 82.9055 69.7207C82.8946 69.7496 82.9236 69.7749 82.9525 69.7749C83.202 69.7749 84.1167 69.7749 84.4024 69.7568C84.6627 69.7387 84.7567 69.6447 84.829 69.4676C84.876 69.3663 84.923 69.2542 84.9773 69.0879C85.0243 69.0518 85.2376 69.0771 85.2737 69.1168C85.2195 69.3121 85.1436 69.6556 85.0785 69.9918C85.0315 70.2702 84.9845 70.6246 84.9592 70.903C84.9302 70.9572 84.7169 70.9572 84.6808 70.921C84.6699 70.7258 84.6627 70.6029 84.6518 70.4944C84.6157 70.2883 84.5217 70.2051 84.3445 70.1762C84.0372 70.1473 83.1622 70.1473 82.8838 70.1473C82.8549 70.1473 82.8296 70.1835 82.8296 70.2124C82.7355 70.762 82.6054 71.561 82.5692 71.9443C82.5331 72.2697 82.5584 72.389 82.8296 72.4469C82.9489 72.4649 83.1911 72.4939 83.4153 72.5228C83.4442 72.5698 83.4153 72.7542 83.3683 72.794C83.0971 72.794 82.5295 72.765 82.0486 72.765C81.5822 72.765 81.1555 72.794 80.859 72.794C80.8301 72.747 80.8482 72.5626 80.8952 72.5228C81.1013 72.4902 81.2857 72.4722 81.3978 72.4469Z" fill="white"/>
<path d="M88.8135 70.1834C88.8135 71.1416 88.423 72.0925 87.5588 72.5842C87.1864 72.8084 86.767 72.9096 86.5428 72.9096C85.9282 72.9096 85.6389 72.3058 85.6389 71.6152C85.6389 70.8053 85.9173 69.9231 86.5862 69.4278C86.9876 69.1313 87.5552 68.936 87.8806 68.936C88.5821 68.936 88.8135 69.6158 88.8135 70.1834ZM87.0201 72.4649C87.6167 72.4649 88.0903 71.4706 88.0903 70.4365C88.0903 69.887 87.9602 69.3555 87.4214 69.3482C86.7055 69.3482 86.3512 70.5125 86.3512 71.3296C86.3476 72.0817 86.5537 72.4649 87.0201 72.4649Z" fill="white"/>
<path d="M91.2432 69.4675C91.5144 69.1313 91.7747 68.936 91.9772 68.936C92.1254 68.936 92.2917 68.9903 92.3785 69.1494C92.3785 69.1674 92.3785 69.2506 92.3785 69.2795C92.3496 69.4205 92.1073 69.8002 91.9989 69.8942C91.9627 69.9303 91.9157 69.9303 91.8868 69.9123C91.7566 69.7532 91.6265 69.6809 91.5252 69.6809C91.377 69.6809 91.0877 70.0063 90.6972 70.827C90.5671 71.1054 90.4369 71.4887 90.3357 71.9153C90.2814 72.1648 90.2236 72.4288 90.2344 72.6132C90.1513 72.7072 89.6957 72.9024 89.5908 72.9096C89.5547 72.9096 89.5258 72.8554 89.5258 72.8265C89.5728 72.6023 89.9922 70.78 90.0645 70.0352C90.0934 69.811 90.0753 69.7206 90.0103 69.7206C89.9271 69.7206 89.7318 69.8508 89.4788 70.0641C89.4679 70.0641 89.4426 70.0533 89.4426 70.0352C89.4318 69.9701 89.4715 69.811 89.4788 69.7857C89.8692 69.3374 90.4369 68.9396 90.643 68.9396C90.7732 68.9396 90.8202 69.1349 90.737 69.7026C90.7008 69.9448 90.6538 70.1509 90.6177 70.3642C90.6177 70.3751 90.6466 70.3823 90.6538 70.3642C90.8346 70.046 91.0009 69.7821 91.2432 69.4675Z" fill="white"/>
<path d="M98.8361 67.3741C98.6119 67.2547 98.2323 67.1969 97.8779 67.1969C96.4534 67.1969 95.5314 68.4985 95.5314 70.1545C95.5205 71.6442 96.3051 72.4794 97.6067 72.4794C97.8382 72.4794 98.0985 72.4432 98.3046 72.3384C98.6228 72.2082 98.9662 71.9298 99.3206 71.4634C99.3748 71.4634 99.505 71.6044 99.4869 71.6695C99.2627 72.0961 98.8252 72.5553 98.5287 72.6927C98.2106 72.8518 97.7297 72.9241 97.2271 72.9241C95.5603 72.9241 94.6672 71.9081 94.6781 70.3172C94.6781 69.106 95.2276 67.8983 96.5004 67.2367C96.9921 66.9763 97.5417 66.8643 98.1925 66.8643C98.5179 66.8643 98.8361 66.9004 99.1398 66.9474C99.382 66.9944 99.6315 67.0414 99.7834 67.0595C99.7002 67.3488 99.552 68.0285 99.5122 68.419C99.4652 68.4841 99.2591 68.4841 99.2157 68.4371C99.2193 67.6995 99.1362 67.5223 98.8361 67.3741Z" fill="white"/>
<path d="M101.302 70.8162C101.078 71.1705 100.948 71.467 100.846 71.9226C100.792 72.1648 100.745 72.4252 100.799 72.5734C100.687 72.6746 100.243 72.9277 100.138 72.9277C100.12 72.9277 100.062 72.8626 100.062 72.8156C100.062 72.6746 100.098 72.4975 100.138 72.2841C100.398 70.8053 100.995 67.826 101.067 67.2584C101.078 67.1174 101.031 67.0523 100.966 67.0523C100.846 67.0523 100.723 67.0884 100.416 67.2295C100.405 67.1933 100.434 66.9872 100.463 66.9583C100.817 66.7088 101.497 66.3906 101.739 66.3906C101.823 66.3906 101.87 66.5099 101.805 66.8824C101.62 67.8586 101.219 69.84 101.089 70.5595C101.089 70.5703 101.118 70.5776 101.125 70.5595C101.812 69.6194 102.698 68.9324 103.229 68.9324C103.554 68.9324 103.554 69.341 103.413 70.0497C103.283 70.7294 103.124 71.4345 103.052 71.919C103.041 72.0853 103.063 72.1612 103.146 72.1612C103.247 72.1612 103.471 72.0202 103.714 71.7599C103.724 71.7707 103.743 71.7888 103.743 71.8141C103.753 71.89 103.714 72.0564 103.706 72.0853C103.287 72.624 102.737 72.9024 102.535 72.9024C102.369 72.9024 102.293 72.6421 102.358 72.2588C102.459 71.608 102.636 70.8343 102.795 70.0822C102.871 69.6917 102.842 69.5435 102.676 69.5435C102.383 69.5507 101.786 70.0461 101.302 70.8162Z" fill="white"/>
<path d="M106.132 69.4675C106.404 69.1313 106.664 68.936 106.866 68.936C107.015 68.936 107.181 68.9903 107.268 69.1494C107.268 69.1674 107.268 69.2506 107.268 69.2795C107.239 69.4205 106.997 69.8002 106.888 69.8942C106.852 69.9303 106.805 69.9303 106.776 69.9123C106.646 69.7532 106.516 69.6809 106.414 69.6809C106.266 69.6809 105.977 70.0063 105.586 70.827C105.456 71.1054 105.326 71.4887 105.225 71.9153C105.171 72.1648 105.113 72.4288 105.124 72.6132C105.041 72.7072 104.585 72.9024 104.48 72.9096C104.444 72.9096 104.415 72.8554 104.415 72.8265C104.462 72.6023 104.881 70.78 104.954 70.0352C104.983 69.811 104.965 69.7206 104.9 69.7206C104.816 69.7206 104.621 69.8508 104.368 70.0641C104.357 70.0641 104.332 70.0533 104.332 70.0352C104.321 69.9701 104.361 69.811 104.368 69.7857C104.758 69.3374 105.326 68.9396 105.532 68.9396C105.662 68.9396 105.709 69.1349 105.626 69.7026C105.59 69.9448 105.543 70.1509 105.503 70.3642C105.503 70.3751 105.532 70.3823 105.539 70.3642C105.724 70.046 105.89 69.7821 106.132 69.4675Z" fill="white"/>
<path d="M109.018 71.7924C109.029 71.8394 109.007 72.0166 108.989 72.0636C108.551 72.6493 108.013 72.9097 107.817 72.9097C107.622 72.9097 107.539 72.6602 107.669 72.0347C107.81 71.3188 107.994 70.451 108.107 69.8942C108.136 69.7641 108.117 69.6881 108.07 69.6881C107.969 69.6881 107.792 69.7894 107.568 69.9665C107.568 69.9665 107.539 69.9557 107.539 69.9376C107.521 69.8834 107.557 69.7243 107.575 69.6954C107.947 69.3157 108.515 68.9325 108.747 68.9325C108.866 68.9325 108.895 69.1566 108.801 69.5833C108.707 70.0858 108.381 71.4923 108.327 71.9298C108.309 72.0962 108.338 72.1721 108.421 72.1721C108.54 72.1721 108.718 72.0491 108.989 71.7635C108.989 71.7671 109.018 71.7744 109.018 71.7924ZM109.13 67.403C109.166 67.4573 109.184 67.5694 109.177 67.6525C109.159 67.8297 109.054 67.9779 108.945 68.0538C108.88 68.09 108.573 68.1189 108.526 68.0828C108.432 68.0285 108.385 67.9345 108.378 67.7646C108.389 67.6887 108.425 67.5513 108.461 67.5043C108.555 67.4103 108.75 67.338 108.909 67.338C109.036 67.338 109.112 67.3741 109.13 67.403Z" fill="white"/>
<path d="M111.939 69.1421C111.95 69.1602 111.957 69.2361 111.95 69.2831C111.914 69.4061 111.755 69.6556 111.654 69.7496C111.625 69.7676 111.57 69.7604 111.552 69.7496C111.422 69.5182 111.191 69.3771 110.93 69.3771C110.67 69.3771 110.446 69.5832 110.446 69.8797C110.446 70.122 110.547 70.2702 111.108 70.6896C111.599 71.0693 111.776 71.2862 111.776 71.5935C111.776 71.8249 111.682 72.1612 111.256 72.5155C110.854 72.8301 110.475 72.9169 110.186 72.9169C109.889 72.9169 109.636 72.8156 109.506 72.6855C109.43 72.6095 109.387 72.5011 109.387 72.4143C109.387 72.3022 109.506 71.9406 109.593 71.8105C109.611 71.7816 109.734 71.7743 109.734 71.7924C109.835 72.248 110.207 72.5083 110.598 72.5083C110.941 72.5083 111.176 72.2769 111.176 72.0057C111.176 71.7743 111.1 71.6044 110.544 71.1777C110.041 70.7872 109.922 70.5558 109.922 70.2557C109.922 70.0135 110.023 69.6772 110.348 69.3916C110.721 69.0553 111.14 68.9469 111.382 68.9469C111.668 68.936 111.885 69.0409 111.939 69.1421Z" fill="white"/>
<path d="M113.335 71.7382C113.288 72.1106 113.371 72.2119 113.501 72.2119C113.761 72.2119 114.181 71.8033 114.34 71.59C114.358 71.5791 114.394 71.6081 114.387 71.6261C114.398 71.7093 114.369 71.8756 114.34 71.9154C114.051 72.371 113.335 72.9097 112.897 72.9097C112.731 72.9097 112.583 72.7144 112.601 72.2878C112.612 71.9154 112.919 70.3606 113.075 69.5327C113.075 69.5146 113.064 69.4857 113.046 69.4857C112.774 69.4857 112.525 69.4748 112.384 69.4567C112.373 69.4387 112.373 69.4097 112.373 69.3917C112.427 69.2976 112.691 69.0843 112.735 69.0662C112.771 69.0554 112.883 69.0771 113.107 69.0662C113.143 69.0662 113.172 69.0373 113.172 69.0192C113.302 68.4805 113.367 68.1623 113.432 68.0249C113.487 67.9128 113.982 67.5332 114.141 67.4754C114.17 67.4645 114.235 67.5585 114.217 67.5874C114.134 67.6995 114.058 67.9056 114.011 68.1189C113.946 68.372 113.87 68.7047 113.816 69.0048C113.805 69.0229 113.816 69.0699 113.845 69.0699C114.318 69.0807 114.857 69.0337 114.944 68.9939C114.955 69.0409 114.915 69.1603 114.89 69.2C114.824 69.276 114.611 69.3772 114.398 69.4133C114.213 69.4495 114.044 69.4676 113.776 69.4784C113.747 69.4784 113.729 69.5074 113.711 69.5435C113.577 70.1546 113.382 71.3188 113.335 71.7382Z" fill="white"/>
<path d="M122.034 69.934C122.305 69.934 122.443 69.8581 122.443 69.6267C122.443 69.4495 122.341 69.2181 122.193 69.0409C122.229 68.9397 122.678 68.6324 122.79 68.6143C122.902 68.6974 122.974 68.9397 122.974 69.1819C122.974 69.6737 122.482 70.4004 121.68 70.4655C121.325 71.8431 120.32 73.0435 118.917 73.0435C117.598 73.0435 117.008 71.9624 117.008 70.8488C117.008 70.2269 117.214 69.5724 117.76 69.0698C118.01 68.8276 118.422 68.5781 118.653 68.5781C119.127 68.5781 119.315 69.0626 119.304 69.3699C119.304 69.388 119.333 69.388 119.34 69.3808C119.767 68.8312 119.973 68.4299 119.991 67.8441C120.002 67.7429 119.973 67.526 119.944 67.3958C119.998 67.3199 120.501 66.9294 120.624 66.9294C120.689 66.9402 120.725 67.2006 120.707 67.3669C120.671 68.2129 119.973 69.1819 118.809 70.4763C118.512 70.8126 118.14 71.185 117.905 71.4273C117.869 71.4562 117.869 71.5032 117.876 71.5213C118.089 72.0347 118.639 72.4324 119.395 72.4324C120.335 72.4324 121.014 71.7707 121.069 70.6101C121.069 70.5559 121.058 70.498 121.033 70.4619C120.939 70.3968 120.826 70.3679 120.624 70.3679C120.205 70.3679 119.89 70.6933 119.648 71.2609C119.63 71.2718 119.583 71.2718 119.572 71.2609C119.507 71.2248 119.449 71.1018 119.442 71.0476C119.648 70.48 120.168 69.8291 120.866 69.8291C121.329 69.8219 121.738 69.934 122.034 69.934ZM117.652 70.4185C117.652 70.6607 117.688 70.903 117.728 71.0332C117.746 71.0693 117.775 71.0802 117.793 71.0621C118.006 70.8777 118.343 70.5487 118.603 70.2341C118.744 70.0678 118.762 69.8978 118.762 69.7026C118.762 69.4242 118.621 69.059 118.317 69.059C118.013 69.059 117.652 69.4856 117.652 70.4185Z" fill="white"/>
<path d="M125.834 67.0125C126.058 67.0125 126.467 67.0415 126.951 67.0415C127.49 67.0415 127.928 67.0125 128.094 67.0125C128.123 67.0415 128.105 67.2439 128.065 67.2837C127.888 67.3018 127.729 67.3199 127.609 67.3596C127.414 67.4139 127.331 67.5006 127.273 67.7863C127.208 68.0936 127.114 68.6323 126.977 69.5435C126.977 69.5796 126.988 69.6086 127.013 69.6194C127.06 69.6303 127.219 69.6375 128.557 69.6375C129.486 69.6375 129.851 69.6375 129.945 69.6266C129.963 69.6158 129.999 69.5905 129.999 69.5507C130.111 68.9288 130.242 68.043 130.278 67.7067C130.296 67.5006 130.242 67.3994 130.101 67.3632C129.97 67.3162 129.848 67.309 129.616 67.2692C129.587 67.2331 129.616 67.0378 129.652 67.0089C129.837 67.0089 130.238 67.0378 130.741 67.0378C131.337 67.0378 131.681 67.0089 131.858 67.0089C131.887 67.0451 131.869 67.2403 131.829 67.2692C131.634 67.2982 131.467 67.3235 131.355 67.3632C131.131 67.4392 131.084 67.5766 131.019 67.8947C130.925 68.3973 130.441 71.4019 130.386 71.9877C130.357 72.248 130.415 72.3782 130.592 72.436C130.733 72.4722 130.871 72.4902 131.124 72.5192C131.142 72.5662 131.124 72.7506 131.077 72.7903C130.9 72.7903 130.379 72.7614 129.895 72.7614C129.363 72.7614 128.983 72.7795 128.741 72.7903C128.705 72.7542 128.723 72.5481 128.77 72.5192C128.965 72.4902 129.171 72.4649 129.291 72.4252C129.468 72.3709 129.54 72.2408 129.598 71.9985C129.674 71.6442 129.822 70.7222 129.916 70.1111C129.916 70.0822 129.905 70.0461 129.88 70.0461C129.685 70.028 128.987 70.028 128.484 70.028C127.526 70.028 127.013 70.028 126.93 70.0388C126.919 70.0388 126.883 70.0858 126.883 70.0931C126.807 70.5776 126.651 71.5827 126.612 71.8973C126.565 72.2588 126.601 72.3818 126.843 72.436C126.962 72.4722 127.092 72.483 127.356 72.5192C127.374 72.5553 127.346 72.7723 127.302 72.7903C127.107 72.7903 126.651 72.7614 126.12 72.7614C125.534 72.7614 125.104 72.7903 124.89 72.7903C124.872 72.7433 124.89 72.5589 124.919 72.5192C125.078 72.5011 125.274 72.483 125.433 72.4432C125.722 72.389 125.776 72.248 125.87 71.7635C125.972 71.1669 126.449 68.2635 126.492 67.8007C126.521 67.5476 126.492 67.4102 126.315 67.3632C126.167 67.3162 126.037 67.309 125.794 67.2801C125.776 67.2259 125.794 67.0378 125.834 67.0125Z" fill="white"/>
<path d="M133.304 71.7924C133.315 71.8394 133.293 72.0166 133.275 72.0636C132.838 72.6493 132.299 72.9097 132.104 72.9097C131.908 72.9097 131.825 72.6602 131.955 72.0347C132.096 71.3188 132.281 70.451 132.393 69.8942C132.422 69.7641 132.404 69.6881 132.357 69.6881C132.256 69.6881 132.078 69.7894 131.854 69.9665C131.854 69.9665 131.825 69.9557 131.825 69.9376C131.807 69.8834 131.843 69.7243 131.861 69.6954C132.234 69.3157 132.802 68.9325 133.033 68.9325C133.152 68.9325 133.181 69.1566 133.087 69.5833C132.993 70.0858 132.668 71.4923 132.614 71.9298C132.595 72.0962 132.624 72.1721 132.708 72.1721C132.827 72.1721 133.004 72.0491 133.275 71.7635C133.279 71.7671 133.304 71.7744 133.304 71.7924ZM133.416 67.403C133.452 67.4573 133.47 67.5694 133.463 67.6525C133.445 67.8297 133.34 67.9779 133.232 68.0538C133.167 68.09 132.859 68.1189 132.812 68.0828C132.718 68.0285 132.671 67.9345 132.664 67.7646C132.675 67.6887 132.711 67.5513 132.747 67.5043C132.841 67.4103 133.037 67.338 133.196 67.338C133.326 67.338 133.398 67.3741 133.416 67.403Z" fill="white"/>
<path d="M136.226 69.1421C136.236 69.1602 136.244 69.2361 136.236 69.2831C136.2 69.4061 136.041 69.6556 135.94 69.7496C135.911 69.7676 135.857 69.7604 135.839 69.7496C135.709 69.5182 135.477 69.3771 135.217 69.3771C134.956 69.3771 134.732 69.5832 134.732 69.8797C134.732 70.122 134.834 70.2702 135.394 70.6896C135.886 71.0693 136.063 71.2862 136.063 71.5935C136.063 71.8249 135.969 72.1612 135.542 72.5155C135.141 72.8301 134.761 72.9169 134.472 72.9169C134.175 72.9169 133.922 72.8156 133.792 72.6855C133.716 72.6095 133.673 72.5011 133.673 72.4143C133.673 72.3022 133.792 71.9406 133.879 71.8105C133.897 71.7816 134.02 71.7743 134.02 71.7924C134.121 72.248 134.494 72.5083 134.884 72.5083C135.228 72.5083 135.463 72.2769 135.463 72.0057C135.463 71.7743 135.387 71.6044 134.83 71.1777C134.327 70.7872 134.208 70.5558 134.208 70.2557C134.208 70.0135 134.309 69.6772 134.635 69.3916C135.007 69.0553 135.427 68.9469 135.669 68.9469C135.958 68.936 136.171 69.0409 136.226 69.1421Z" fill="white"/>
<path d="M139.104 67.0125C139.317 67.0125 139.783 67.0414 140.275 67.0414C140.76 67.0414 141.179 67.0125 141.41 67.0125C141.439 67.0487 141.439 67.2258 141.392 67.2728C141.208 67.3018 141.031 67.3198 140.901 67.356C140.687 67.4102 140.622 67.5332 140.557 67.8586C140.398 68.7046 140.073 70.7511 139.914 71.8611C139.877 72.3094 139.968 72.3926 140.203 72.4577C140.333 72.4866 140.492 72.4938 140.687 72.5336C140.705 72.5698 140.687 72.7578 140.651 72.7939C140.333 72.7939 139.953 72.765 139.357 72.765C138.713 72.765 138.315 72.7939 138.174 72.7939C138.156 72.7469 138.156 72.5698 138.203 72.5336C138.417 72.4975 138.612 72.4794 138.735 72.4505C138.977 72.3854 139.089 72.2371 139.154 71.8936C139.349 70.7873 139.646 68.9252 139.798 67.7899C139.834 67.5115 139.798 67.4175 139.574 67.3632C139.451 67.3343 139.248 67.309 139.071 67.2801C139.039 67.2331 139.064 67.0487 139.104 67.0125ZM142.285 67.0125C142.481 67.0125 142.853 67.0414 143.345 67.0414C143.923 67.0414 144.202 67.0234 144.444 67.0125C144.48 67.0414 144.473 67.2367 144.415 67.2728C143.865 67.3668 143.605 67.4681 143.186 67.8694C142.607 68.4262 141.707 69.2759 141.157 69.7315C141.146 69.7423 141.139 69.7785 141.146 69.7785C141.555 70.4582 142.441 71.7129 142.998 72.2335C143.099 72.3167 143.24 72.3998 143.352 72.4288C143.511 72.483 143.696 72.5119 143.974 72.5228C144.01 72.5589 143.985 72.765 143.927 72.7939C143.442 72.8482 142.643 72.8048 142.455 72.7108C142.314 72.6566 142.195 72.5445 142.047 72.3854C141.692 71.9949 140.857 70.7583 140.463 70.1437C140.409 70.0497 140.362 70.0135 140.322 69.9773C140.311 69.9484 140.34 69.8653 140.376 69.8363C140.825 69.6881 142.09 68.5239 142.553 68.0032C142.813 67.714 142.849 67.6236 142.849 67.5476C142.86 67.4826 142.831 67.4175 142.727 67.3813C142.614 67.3452 142.43 67.3054 142.235 67.2801C142.209 67.2258 142.228 67.0487 142.285 67.0125Z" fill="white"/>
<path d="M145.962 71.7924C145.973 71.8394 145.952 72.0166 145.934 72.0636C145.496 72.6493 144.957 72.9097 144.762 72.9097C144.567 72.9097 144.484 72.6602 144.614 72.0347C144.755 71.3188 144.939 70.451 145.051 69.8942C145.08 69.7641 145.062 69.6881 145.015 69.6881C144.914 69.6881 144.737 69.7894 144.513 69.9665C144.513 69.9665 144.484 69.9557 144.484 69.9376C144.466 69.8834 144.502 69.7243 144.52 69.6954C144.892 69.3157 145.46 68.9325 145.691 68.9325C145.811 68.9325 145.84 69.1566 145.746 69.5833C145.652 70.0858 145.326 71.4923 145.272 71.9298C145.254 72.0962 145.283 72.1721 145.366 72.1721C145.485 72.1721 145.662 72.0491 145.934 71.7635C145.934 71.7671 145.962 71.7744 145.962 71.7924ZM146.071 67.403C146.107 67.4573 146.125 67.5694 146.118 67.6525C146.1 67.8297 145.995 67.9779 145.887 68.0538C145.821 68.09 145.514 68.1189 145.467 68.0828C145.373 68.0285 145.326 67.9345 145.319 67.7646C145.33 67.6887 145.366 67.5513 145.402 67.5043C145.496 67.4103 145.691 67.338 145.85 67.338C145.981 67.338 146.053 67.3741 146.071 67.403Z" fill="white"/>
<path d="M146.574 70.0352C146.556 69.981 146.592 69.793 146.603 69.764C147.011 69.2904 147.543 68.9361 147.749 68.9361C147.915 68.9361 147.933 69.2325 147.832 69.8002C147.778 70.1184 147.731 70.3498 147.691 70.5342C147.691 70.545 147.709 70.5523 147.72 70.5342C148.193 69.8653 148.743 69.3519 149.227 69.0915C149.412 68.9903 149.564 68.9324 149.73 68.9324C150.048 68.9324 150.066 69.3699 149.896 70.1871C149.748 70.8849 149.625 71.4996 149.56 71.9009C149.549 72.0419 149.549 72.1504 149.636 72.1504C149.73 72.1504 149.907 72.0672 150.193 71.7418C150.204 71.7418 150.222 71.7526 150.229 71.7888C150.24 71.825 150.211 72.0419 150.182 72.0781C149.82 72.5806 149.26 72.906 149.011 72.906C148.815 72.906 148.779 72.5806 148.898 71.966C149.029 71.2971 149.188 70.5993 149.289 70.0967C149.354 69.7423 149.336 69.576 149.17 69.576C148.891 69.576 148.331 70.0497 147.781 70.9355C147.651 71.1416 147.51 71.5032 147.445 71.7997C147.362 72.1359 147.297 72.4685 147.326 72.5987C147.224 72.7108 146.794 72.8952 146.704 72.906C146.657 72.9169 146.61 72.8518 146.621 72.8048C146.657 72.4324 147.076 70.6933 147.177 69.9123C147.195 69.7821 147.188 69.699 147.123 69.699C147.029 69.699 146.816 69.8653 146.61 70.0605C146.602 70.0641 146.574 70.0461 146.574 70.0352Z" fill="white"/>
<path d="M154.42 69.1422C154.354 69.3483 154.123 69.5797 153.928 69.6447C153.845 69.6918 153.722 69.7279 153.62 69.746C153.631 69.8002 153.631 69.9412 153.631 69.9991C153.631 70.6861 153.306 71.2754 152.839 71.59C152.608 71.7563 152.29 71.8611 152.087 71.9082C152.033 71.9262 151.957 71.9443 151.881 71.9841C151.805 72.0311 151.722 72.0962 151.722 72.1612C151.722 72.2553 151.805 72.3384 151.993 72.4324C152.373 72.6096 152.915 72.8808 153.205 73.076C153.512 73.2821 153.696 73.5027 153.696 73.81C153.696 74.1643 153.418 74.609 152.868 74.9345C152.449 75.1767 151.983 75.2599 151.686 75.2599C150.728 75.2599 150.059 74.7392 150.059 74.1065C150.059 73.7811 150.645 73.3725 151.325 72.9603C151.343 72.9495 151.335 72.9314 151.325 72.9242C151.111 72.7759 151.006 72.6168 151.006 72.4758C151.006 72.4397 151.035 72.3637 151.061 72.3348C151.162 72.2227 151.469 72.0275 151.581 71.9624C151.581 71.9515 151.592 71.9335 151.57 71.9262C151.068 71.8141 150.873 71.3947 150.873 70.9138C150.883 70.3173 151.162 69.6484 151.711 69.276C151.983 69.0988 152.445 68.9397 152.698 68.9397C152.858 68.9397 153.071 69.0156 153.313 69.1349C153.414 69.1819 153.61 69.2651 153.769 69.2543C154.029 69.2543 154.206 69.2073 154.401 69.0301C154.42 69.0409 154.42 69.1132 154.42 69.1422ZM153.071 74.1752C153.071 73.9438 152.93 73.7738 152.698 73.6075C152.38 73.3761 151.852 73.0941 151.664 73.0941C151.534 73.0941 150.688 73.6075 150.688 73.9221C150.688 74.3776 151.292 74.826 152.048 74.826C152.706 74.8188 153.071 74.5187 153.071 74.1752ZM152.988 70.1546C152.988 69.6628 152.792 69.2976 152.384 69.2976C151.845 69.2976 151.556 70.0967 151.556 70.7114C151.556 71.2031 151.762 71.5683 152.171 71.5683C152.651 71.5719 152.988 70.8451 152.988 70.1546Z" fill="white"/>
<path d="M155.172 69.6339C155.58 69.2434 156.318 68.9361 156.679 68.9361C156.911 68.9361 157.081 68.965 157.182 69.0011C157.2 69.012 157.229 68.9903 157.229 68.9722C157.359 68.3684 157.5 67.5874 157.536 67.2873C157.554 67.0921 157.536 67.0089 157.442 67.0089C157.341 67.0089 157.117 67.0451 156.838 67.168C156.82 67.1319 156.849 66.9366 156.875 66.9077C157.294 66.6582 157.981 66.387 158.216 66.387C158.328 66.3979 158.317 66.5931 158.27 66.8607C157.992 68.3395 157.341 71.4381 157.33 72.0455C157.33 72.1287 157.366 72.2046 157.413 72.2046C157.554 72.2046 157.757 72.0455 158.017 71.7852C158.028 71.796 158.046 71.8033 158.046 71.8214C158.057 71.8973 158.017 72.0636 157.999 72.1106C157.656 72.5662 156.965 73.0037 156.744 73.0037C156.632 73.0037 156.578 72.8193 156.603 72.6132C156.614 72.3601 156.679 72.0166 156.77 71.4959C156.759 71.4851 156.734 71.4851 156.723 71.4959C156.108 72.3239 155.327 72.9024 154.9 72.9024C154.452 72.9024 154.333 72.2986 154.333 71.843C154.336 71.0223 154.651 70.1365 155.172 69.6339ZM156.679 71.1055C156.773 70.9572 156.864 70.78 156.911 70.574C156.976 70.3317 157.059 69.8472 157.077 69.7351C157.077 69.652 157.066 69.5869 157.023 69.5507C156.864 69.4097 156.603 69.3374 156.325 69.3374C155.468 69.3374 155.049 70.6137 155.049 71.5429C155.049 71.9985 155.168 72.2299 155.403 72.2299C155.667 72.2299 156.17 71.8864 156.679 71.1055Z" fill="white"/>
<path d="M161.875 70.1834C161.875 71.1416 161.485 72.0925 160.62 72.5842C160.248 72.8084 159.829 72.9096 159.604 72.9096C158.99 72.9096 158.7 72.3058 158.7 71.6152C158.7 70.8053 158.979 69.9231 159.648 69.4278C160.049 69.1313 160.617 68.936 160.942 68.936C161.64 68.936 161.875 69.6158 161.875 70.1834ZM160.078 72.4649C160.675 72.4649 161.148 71.4706 161.148 70.4365C161.148 69.887 161.018 69.3555 160.479 69.3482C159.763 69.3482 159.409 70.5125 159.409 71.3296C159.409 72.0817 159.612 72.4649 160.078 72.4649Z" fill="white"/>
<path d="M162.533 70.0171C162.515 69.9412 162.544 69.8038 162.569 69.7459C162.978 69.2904 163.509 68.936 163.733 68.936C163.882 68.936 163.893 69.2253 163.827 69.6339C163.773 69.952 163.715 70.2196 163.65 70.5558C163.661 70.5667 163.679 70.5558 163.686 70.5558C164.373 69.5977 165.23 68.936 165.65 68.936C165.928 68.936 166.022 69.2325 165.939 69.8472C165.91 70.1075 165.856 70.3787 165.816 70.5812C165.827 70.592 165.845 70.5992 165.852 70.5812C166.521 69.6411 167.414 68.936 167.863 68.936C168.199 68.936 168.224 69.3374 168.047 70.2196C167.917 70.8813 167.787 71.3911 167.722 71.8756C167.703 72.0057 167.711 72.1467 167.805 72.1467C167.899 72.1467 168.047 72.0817 168.372 71.7454C168.383 71.7454 168.401 71.7635 168.401 71.7996C168.401 71.8466 168.372 72.0238 168.354 72.0708C167.917 72.6276 167.385 72.9096 167.172 72.9096C166.966 72.9096 166.941 72.5553 167.042 71.9985C167.19 71.2464 167.313 70.733 167.432 70.1364C167.508 69.7821 167.515 69.5796 167.338 69.5796C167.042 69.5796 166.387 70.1762 165.925 70.9644C165.823 71.1307 165.682 71.4381 165.588 71.8032C165.523 72.0744 165.44 72.4071 165.447 72.6421C165.364 72.7252 164.934 72.9205 164.825 72.9205C164.789 72.9205 164.742 72.8735 164.76 72.7614C164.807 72.436 165.133 71.0765 165.263 70.1943C165.339 69.7676 165.292 69.5905 165.133 69.5905C164.862 69.5905 164.323 70.0352 163.755 70.9391C163.672 71.0693 163.571 71.2754 163.466 71.5899C163.347 71.9443 163.242 72.4288 163.281 72.6132C163.14 72.7433 162.725 72.9024 162.649 72.9096C162.602 72.9096 162.573 72.8265 162.584 72.7614C162.595 72.6674 162.62 72.5119 162.678 72.2407C162.844 71.5429 163.057 70.5016 163.144 69.9593C163.173 69.7821 163.155 69.6989 163.097 69.6989C162.985 69.6989 162.801 69.8472 162.566 70.0533C162.555 70.0533 162.533 70.0352 162.533 70.0171Z" fill="white"/>
<path d="M33.2155 0.639971C33.2155 0.285637 32.9298 0 32.5791 0C32.2248 0 31.9391 0.285637 31.9391 0.639971C31.9391 0.846063 32.0368 1.02685 32.1886 1.14255V9.59957H32.9696V1.14255C33.1179 1.02323 33.2155 0.842448 33.2155 0.639971Z" fill="white"/>
<path d="M32.1886 1.89099C31.4004 2.25617 29.4877 3.26856 27.2569 5.36202C25.2936 7.20239 23.6087 9.16208 23.5219 10.7204C23.6702 8.88367 28.5983 8.2437 30.8906 8.2437C31.0027 3.90491 31.7258 2.45503 32.1886 1.96692V1.89099Z" fill="#D15E14"/>
<path d="M22.2962 63.1511C21.8009 63.2957 21.4031 63.8163 21.4031 64.3153V73.2713L23.2037 72.8772V63.8055C23.2001 63.2957 22.7952 63.0028 22.2962 63.1511Z" fill="white"/>
<path d="M22.4192 51.7003C21.7756 51.9425 21.2621 52.9621 21.2621 53.9781C21.2621 54.9941 21.7792 55.6413 22.4192 55.4172C23.0664 55.193 23.5979 54.1662 23.5979 53.1285C23.5979 52.0944 23.07 51.4544 22.4192 51.7003Z" fill="white"/>
<path d="M42.8621 63.1511C42.3631 63.0064 41.9545 63.2957 41.9545 63.8019V72.8736L43.7551 73.2677V64.3117C43.7551 63.8127 43.3574 63.2921 42.8621 63.1511Z" fill="white"/>
<path d="M34.1339 50.8831C33.7362 50.4854 33.1866 50.2396 32.5755 50.2396C31.3607 50.2396 30.3736 51.2266 30.3736 52.4415C30.3736 52.9151 30.5255 53.3526 30.7786 53.7106C30.7858 53.7214 30.793 53.7359 30.8039 53.7467C30.8147 53.7612 30.8256 53.7721 30.8328 53.7829C30.8689 53.8299 30.9087 53.8769 30.9521 53.9239C30.9666 53.9384 30.981 53.9565 30.9955 53.9709C31.0027 53.9782 31.01 53.989 31.0172 53.9962C31.01 53.989 31.0063 53.9818 30.9991 53.9782C31.4004 54.3867 31.9573 54.6434 32.5719 54.6434C33.7868 54.6434 34.7738 53.6564 34.7738 52.4415C34.7811 51.8305 34.5316 51.2809 34.1339 50.8831Z" fill="white"/>
<path d="M42.7355 51.7003C42.0883 51.4544 41.5568 52.0944 41.5568 53.1321C41.5568 54.1698 42.0883 55.193 42.7355 55.4208C43.3791 55.6449 43.8925 54.9977 43.8925 53.9817C43.8925 52.9621 43.3791 51.9425 42.7355 51.7003Z" fill="white"/>
<path d="M34.3761 73.8353V67.4789C34.3761 66.4846 33.5698 65.6783 32.5755 65.6783C31.5812 65.6783 30.7749 66.4846 30.7749 67.4789V72.9386V79.5552C31.9102 79.8662 32.5755 80 32.5755 80C32.5755 80 33.2408 79.8662 34.3761 79.5552V73.8353Z" fill="white"/>
<path d="M28.8044 9.59593C28.8478 9.94303 28.9779 10.3263 29.2455 10.7349C29.2455 10.7349 29.1406 11.8846 27.0472 11.8413C25.1236 11.8015 24.8235 12.8066 24.744 13.1682C23.9558 12.521 23.3809 12.1341 23.5255 10.7096C23.5328 10.6409 23.5472 10.5758 23.5653 10.5071C23.5689 10.4926 23.5725 10.4818 23.5798 10.4673C23.5906 10.4311 23.6051 10.3986 23.6159 10.3624C23.7461 10.0696 24.0064 9.81287 24.3571 9.58508H0.168396C0.168396 9.58508 0.168396 29.2687 0.168396 44.6172C0.168396 60.0163 9.35939 69.0409 17.9502 74.1173V47.5856L26.0059 43.3155H39.1488L47.2044 47.5856V74.1173C55.7989 69.0409 64.9862 60.0126 64.9862 44.6172C64.9862 29.2687 64.9862 9.58508 64.9862 9.58508H28.8044V9.59593ZM53.1377 24.5937C53.8102 24.308 54.819 24.1236 55.9507 24.1236C57.0824 24.1236 58.0912 24.3044 58.7637 24.5937V33.0579C58.0912 32.7723 57.0824 32.5879 55.9507 32.5879C54.819 32.5879 53.8102 32.7687 53.1377 33.0579V24.5937ZM46.7308 24.5937C47.0924 24.4418 47.5515 24.3189 48.0722 24.2357V23.0823H51.0153V24.2357C51.536 24.3153 51.9952 24.4382 52.3568 24.5937V33.0579C51.6842 32.7723 50.6755 32.5879 49.5438 32.5879C48.4121 32.5879 47.4033 32.7687 46.7308 33.0579V24.5937ZM22.9145 17.5395L28.2873 14.741H32.185V9.59955H32.966V14.7446H36.8637L42.2365 17.5431V19.0617L36.8637 16.2632H28.2873L22.9145 19.0617V17.5395ZM38.9463 24.1236C38.4799 23.8778 38.1002 24.1598 38.1002 24.7491V34.6416L36.296 33.7015H33.6421V23.8633C33.6421 23.274 33.1649 22.7967 32.5755 22.7967C31.9862 22.7967 31.5089 23.274 31.5089 23.8633V33.7015H28.855L27.0508 34.6416V24.7491C27.0508 24.1598 26.6711 23.8814 26.2047 24.1236C25.7383 24.3695 25.3587 25.0456 25.3587 25.635V35.5238L23.9232 36.2722V23.6211V23.1149V21.7554L28.855 19.1883H31.9862H36.2996L41.2314 21.7554V36.2722L39.796 35.5238V25.635C39.7924 25.0456 39.4163 24.3695 38.9463 24.1236ZM36.2996 18.6785H31.1582H28.8586L23.9269 21.2456V19.8391L28.8586 17.272H36.2996L41.2314 19.8391V21.2456L36.2996 18.6785ZM12.7979 24.5937C13.1594 24.4382 13.6186 24.3189 14.1393 24.2357V23.0823H17.0824V24.2357C17.6031 24.3153 18.0623 24.4382 18.4238 24.5937V33.0579C17.7513 32.7723 16.7426 32.5879 15.6109 32.5879C14.4792 32.5879 13.4704 32.7687 12.7979 33.0579V24.5937ZM6.39455 24.5937C7.06706 24.308 8.07583 24.1236 9.20753 24.1236C10.3392 24.1236 11.348 24.3044 12.0205 24.5937V33.0579C11.348 32.7723 10.3392 32.5879 9.20753 32.5879C8.07583 32.5879 7.06706 32.7687 6.39455 33.0579V24.5937ZM13.8428 34.8404H10.9792V34.3885H4.83259V25.3747H5.61357V33.6075H11.3986V34.0595H13.4198V33.6075H19.2048V25.3747H19.9858V34.3885H13.8428V34.8404ZM48.394 46.425L39.6911 41.8114H25.4635L16.7606 46.425V45.4126L23.9269 37.281L28.8586 34.7139H36.2996L41.2314 37.281L48.3976 45.4126L48.394 46.425ZM60.322 34.3885H54.179V34.8404H51.3154V34.3885H45.1724V25.3747H45.9534V33.6075H51.7385V34.0595H53.7596V33.6075H59.5447V25.3747H60.3257V34.3885H60.322Z" fill="white"/>
<path d="M16.6015 30.4619L15.6109 29.605L14.6238 30.4619V23.5632H16.6015V30.4619Z" fill="#D15E14"/>
<path d="M48.5531 23.5632H50.5345V30.4619L49.5438 29.605L48.5531 30.4619V23.5632Z" fill="#D15E14"/>
</svg>
